# xmcd
#
# Track frame offsets:
#	150
#	12460
#	35324
#	47016
#	58621
#	71573
#	83692
#	99511
#	112717
#	128076
#	137651
#	152370
#	178684
#	193560
#
# Disc length: 2771 seconds
#
# Revision: 1
# Processed by: cddbd v1.5.2PL0 Copyright (c) Steve Scherf et al.
# Submitted via: audiograbber 1.83.01
#
DISCID=aa0ad10e
DTITLE=Miss Behavin` - Making Amens
DYEAR=2006
DGENRE=Courty
TTITLE0=Rocka my soul
TTITLE1=Wayfaring Strander
TTITLE2=Down To The River To Play
TTITLE3=Ain´t No Grave
TTITLE4=Old Rugged Cross
TTITLE5=I´ll Fly Away
TTITLE6=In The Garden
TTITLE7=Swing Low
TTITLE8=When I Lay My Burden Down
TTITLE9=Amazing Grace
TTITLE10=Ain´t Gonna Grieve My Lord
TTITLE11=Sometimes I Feel Like A Motherless Child
TTITLE12=My Lord Keeps A Record
TTITLE13=I´m Going Home On The Morning Train
EXTD=
EXTT0=
EXTT1=
EXTT2=
EXTT3=
EXTT4=
EXTT5=
EXTT6=
EXTT7=
EXTT8=
EXTT9=
EXTT10=
EXTT11=
EXTT12=
EXTT13=
PLAYORDER=
